<svg width="59" height="40" viewBox="0 0 59 40" fill="none" xmlns="http://www.w3.org/2000/svg">
<path d="M54.7857 40H4.21429C3.097 39.9986 2.02586 39.5467 1.23581 38.7432C0.445772 37.9398 0.00133834 36.8505 0 35.7143V31.8571C0 31.6298 0.0888007 31.4118 0.246867 31.2511C0.404933 31.0903 0.619318 31 0.842857 31H24.4429C24.6664 31 24.8808 31.0903 25.0388 31.2511C25.1969 31.4118 25.2857 31.6298 25.2857 31.8571C25.2857 32.0845 25.1969 32.3025 25.0388 32.4632C24.8808 32.624 24.6664 32.7143 24.4429 32.7143H1.68571V35.7143C1.68571 36.3963 1.95212 37.0503 2.42632 37.5326C2.90051 38.0148 3.54367 38.2857 4.21429 38.2857H54.7857C55.4563 38.2857 56.0995 38.0148 56.5737 37.5326C57.0479 37.0503 57.3143 36.3963 57.3143 35.7143V32.7143H34.5571C34.3336 32.7143 34.1192 32.624 33.9612 32.4632C33.8031 32.3025 33.7143 32.0845 33.7143 31.8571C33.7143 31.6298 33.8031 31.4118 33.9612 31.2511C34.1192 31.0903 34.3336 31 34.5571 31H58.1571C58.3807 31 58.5951 31.0903 58.7531 31.2511C58.9112 31.4118 59 31.6298 59 31.8571V35.7143C58.9987 36.8505 58.5542 37.9398 57.7642 38.7432C56.9741 39.5467 55.903 39.9986 54.7857 40Z" fill="#1AB248"/>
<path d="M54.1525 33H35.0847C34.86 33 34.6444 32.9097 34.4855 32.749C34.3266 32.5882 34.2373 32.3702 34.2373 32.1429C34.2373 31.9155 34.3266 31.6975 34.4855 31.5368C34.6444 31.376 34.86 31.2857 35.0847 31.2857H53.3051V4.28571C53.3051 3.60373 53.0372 2.94968 52.5604 2.46744C52.0837 1.9852 51.437 1.71429 50.7627 1.71429H9.23729C8.56301 1.71429 7.91635 1.9852 7.43956 2.46744C6.96277 2.94968 6.69492 3.60373 6.69492 4.28571V31.2857H24.9153C25.14 31.2857 25.3556 31.376 25.5145 31.5368C25.6734 31.6975 25.7627 31.9155 25.7627 32.1429C25.7627 32.3702 25.6734 32.5882 25.5145 32.749C25.3556 32.9097 25.14 33 24.9153 33H5.84746C5.6227 33 5.40714 32.9097 5.24821 32.749C5.08929 32.5882 5 32.3702 5 32.1429V4.28571C5.00135 3.14949 5.44821 2.06019 6.24256 1.25676C7.03691 0.453327 8.1139 0.00136102 9.23729 0H50.7627C51.8861 0.00136102 52.9631 0.453327 53.7574 1.25676C54.5518 2.06019 54.9987 3.14949 55 4.28571V32.1429C55 32.3702 54.9107 32.5882 54.7518 32.749C54.5929 32.9097 54.3773 33 54.1525 33Z" fill="#1AB248"/>
<path d="M34.0505 35H25.9533C25.7948 34.9998 25.6394 34.9544 25.5044 34.8688C25.3695 34.7832 25.2602 34.6608 25.1889 34.5151L24.0945 32.2839C24.0429 32.1804 24.0117 32.0675 24.0027 31.9515C23.9937 31.8356 24.0071 31.719 24.0422 31.6084C24.0772 31.4978 24.1332 31.3955 24.2068 31.3072C24.2805 31.219 24.3704 31.1466 24.4714 31.0943C24.5723 31.042 24.6824 31.0107 24.7951 31.0023C24.9079 30.9939 25.0211 31.0085 25.1284 31.0454C25.2356 31.0822 25.3347 31.1405 25.42 31.2169C25.5052 31.2933 25.5749 31.3863 25.6251 31.4905L26.4821 33.2369H33.5234L34.3804 31.4905C34.4837 31.2834 34.6623 31.1267 34.8774 31.0546C35.0925 30.9825 35.3266 31.0008 35.5286 31.1056C35.7307 31.2103 35.8843 31.3929 35.9559 31.6137C36.0275 31.8344 36.0114 32.0753 35.9111 32.2839L34.8166 34.5151C34.7452 34.6611 34.6357 34.7837 34.5004 34.8693C34.3651 34.9549 34.2093 35.0002 34.0505 35Z" fill="#1AB248"/>
<path d="M35.8361 27H24.1639C23.7131 26.9999 23.2676 26.905 22.8571 26.7215C22.4465 26.538 22.0806 26.2702 21.7836 25.9361C21.4867 25.602 21.2656 25.2092 21.1352 24.7841C21.0049 24.359 20.9682 23.9113 21.0277 23.4711L22.7594 10.8051C22.7897 10.5821 22.9013 10.3775 23.0733 10.2294C23.2453 10.0813 23.466 9.9998 23.6945 10H36.3055C36.5339 9.9998 36.7547 10.0813 36.9267 10.2294C37.0987 10.3775 37.2103 10.5821 37.2406 10.8051L38.9723 23.4655C39.0318 23.9057 38.9951 24.3534 38.8648 24.7785C38.7344 25.2036 38.5133 25.5964 38.2164 25.9305C37.9194 26.2646 37.5535 26.5324 37.1429 26.7159C36.7324 26.8994 36.2869 26.9943 35.8361 26.9944V27ZM24.5184 11.8629L22.897 23.7135C22.8725 23.8915 22.887 24.0726 22.9394 24.2446C22.9919 24.4166 23.0812 24.5756 23.2012 24.7108C23.3212 24.846 23.4692 24.9544 23.6353 25.0285C23.8013 25.1027 23.9816 25.141 24.1639 25.1408H35.8361C36.0184 25.141 36.1987 25.1027 36.3647 25.0285C36.5308 24.9544 36.6788 24.846 36.7988 24.7108C36.9188 24.5756 37.0081 24.4166 37.0606 24.2446C37.113 24.0726 37.1275 23.8915 37.103 23.7135L35.4816 11.8573L24.5184 11.8629Z" fill="#1AB248"/>
<path d="M33.0632 15C32.8147 15 32.5764 14.9003 32.4007 14.7228C32.2251 14.5453 32.1264 14.3046 32.1264 14.0536V9.54597C32.1264 8.8423 31.8497 8.16745 31.3571 7.66988C30.8646 7.17231 30.1966 6.89277 29.5 6.89277C28.8034 6.89277 28.1354 7.17231 27.6429 7.66988C27.1503 8.16745 26.8736 8.8423 26.8736 9.54597V14.0508C26.8736 14.3018 26.7749 14.5425 26.5992 14.72C26.4236 14.8975 26.1853 14.9972 25.9368 14.9972C25.6884 14.9972 25.4501 14.8975 25.2744 14.72C25.0987 14.5425 25 14.3018 25 14.0508V9.54597C25 8.3403 25.4741 7.18402 26.318 6.33148C27.1619 5.47895 28.3065 5 29.5 5C30.6935 5 31.8381 5.47895 32.682 6.33148C33.5259 7.18402 34 8.3403 34 9.54597V14.0508C34.0004 14.1753 33.9764 14.2987 33.9295 14.4138C33.8826 14.529 33.8136 14.6336 33.7266 14.7218C33.6396 14.81 33.5362 14.88 33.4223 14.9277C33.3085 14.9754 33.1864 15 33.0632 15Z" fill="#1AB248"/>
</svg>
