<svg width="43" height="43" viewBox="0 0 43 43" fill="none" xmlns="http://www.w3.org/2000/svg">
<path d="M21.5 1C32.8217 1 42 10.1783 42 21.5C42 32.8217 32.8217 42 21.5 42C10.1783 42 1 32.8217 1 21.5C1.01268 10.1836 10.1836 1.01268 21.5 1ZM3.77037 28.6817L9.60039 29.6877C8.93307 27.2403 8.57272 24.7195 8.52768 22.1833H2.38368C2.46076 24.4142 2.93022 26.614 3.77037 28.6817ZM40.6163 22.1833H34.4723C34.4273 24.7195 34.0669 27.2403 33.3996 29.6877L39.2296 28.6817C40.0698 26.614 40.5392 24.4142 40.6163 22.1833ZM39.2296 14.3183L33.3996 13.3123C34.0669 15.7597 34.4273 18.2805 34.4723 20.8167H40.6163C40.5392 18.5858 40.0698 16.386 39.2296 14.3183ZM20.8167 11.9717C18.3613 12.0031 15.9119 12.2266 13.4912 12.6407L11.0792 13.0568C10.3381 15.5786 9.93939 18.1884 9.89368 20.8167H20.8167V11.9717ZM13.2583 11.2937C15.7557 10.867 18.2832 10.6364 20.8167 10.605V2.40504C16.8992 2.7814 13.4962 6.36824 11.5676 11.5883L13.2583 11.2937ZM22.1833 10.605C24.7168 10.6364 27.2436 10.867 29.741 11.2937L31.4324 11.5863C29.5038 6.3649 26.1008 2.77673 22.1833 2.40203V10.605ZM29.5081 12.6407C27.0878 12.2266 24.6387 12.0031 22.1833 11.9717V20.8167H33.1063C33.0606 18.1884 32.6619 15.5786 31.9208 13.0568L29.5081 12.6407ZM33.1063 22.1833H22.1833V31.0283C24.6387 30.9969 27.0881 30.7734 29.5088 30.3593L31.9208 29.9432C32.6619 27.4214 33.0606 24.8116 33.1063 22.1833ZM29.7417 31.7063C27.2443 32.1337 24.7171 32.3653 22.1833 32.3986V40.5986C26.1008 40.2219 29.5038 36.6351 31.4324 31.415L29.7417 31.7063ZM20.8167 32.3986C18.2832 32.3653 15.7564 32.1337 13.259 31.7063L11.5676 31.4137C13.4962 36.6351 16.8992 40.2233 20.8167 40.598V32.3986ZM13.4919 30.3593C15.9122 30.7734 18.3613 30.9969 20.8167 31.0283V22.1833H9.89368C9.93939 24.8116 10.3381 27.4214 11.0792 29.9432L13.4919 30.3593ZM8.52768 20.8167C8.57272 18.2805 8.93307 15.7597 9.60039 13.3123L3.77037 14.3183C2.93022 16.386 2.46076 18.5858 2.38368 20.8167H8.52768ZM4.46171 12.8122L10.0502 11.8479C11.0548 8.57039 12.9343 5.62885 15.4868 3.34028C10.7138 4.93317 6.75562 8.33349 4.46171 12.8122ZM27.5132 3.34028C30.0657 5.62885 31.9452 8.57039 32.9498 11.8479L38.5383 12.8122C36.2444 8.33349 32.2862 4.93317 27.5132 3.34028ZM38.5383 30.1878L32.9498 31.1521C31.9452 34.4296 30.0657 37.3712 27.5132 39.6597C32.2862 38.0668 36.2444 34.6665 38.5383 30.1878ZM15.4868 39.6597C12.9343 37.3712 11.0548 34.4296 10.0502 31.1521L4.46171 30.1878C6.75562 34.6665 10.7138 38.0668 15.4868 39.6597Z" fill="#1AB248" stroke="#1AB248" stroke-width="0.1"/>
</svg>
