<svg width="42" height="42" viewBox="0 0 42 42" fill="none" xmlns="http://www.w3.org/2000/svg">
<g clip-path="url(#clip0)">
<path d="M21 42C32.598 42 42 32.598 42 21C42 9.40202 32.598 0 21 0C9.40202 0 0 9.40202 0 21C0 32.598 9.40202 42 21 42Z" fill="#F0F0F0"/>
<path d="M42.0004 21.0001C42.0004 11.9709 36.3015 4.27347 28.3047 1.30632V40.694C36.3015 37.7268 42.0004 30.0294 42.0004 21.0001Z" fill="#D80027"/>
<path d="M0 21.0001C0 30.0294 5.69896 37.7268 13.6957 40.694V1.30632C5.69896 4.27347 0 11.9709 0 21.0001Z" fill="#0052B4"/>
</g>
<defs>
<clipPath id="clip0">
<rect width="42" height="42" fill="white"/>
</clipPath>
</defs>
</svg>
