<svg width="40" height="40" viewBox="0 0 40 40" fill="none" xmlns="http://www.w3.org/2000/svg">
<path d="M32 8.99555H24L20 13.4927L14.1406 27.7368H34.3438L40 12.6058V0L32 8.99555Z" fill="#FFC107"/>
<path d="M16 17.9904H8L0 26.9859V33.4932H20V13.4932L16 17.9904Z" fill="#FBF24A"/>
<path d="M24 19.5677L20 23.049L15.3125 31.5243L20 39.9997H37C38.6569 39.9997 40 38.6565 40 36.9997V12.6055L32 19.5677H24Z" fill="#269449"/>
<path d="M16 26.5299H8L0 33.4923V36.9995C0 38.6564 1.34315 39.9995 3 39.9995H20V23.0488L16 26.5299Z" fill="#1AB248"/>
</svg>
