<svg width="20" height="20" viewBox="0 0 20 20" fill="none" xmlns="http://www.w3.org/2000/svg">
<path d="M15.0202 1.35355C14.825 1.15829 14.5084 1.15829 14.3131 1.35355L2.54237 13.1243C2.47829 13.1884 2.43283 13.2687 2.41086 13.3566L1.20206 18.1918C1.11052 18.5579 1.44212 18.8896 1.80828 18.7981L6.64914 17.5891C6.73714 17.5672 6.8175 17.5217 6.88162 17.4575L18.6466 5.68689C18.8418 5.49161 18.8418 5.17509 18.6465 4.97986L15.0202 1.35355ZM3.42437 17.1899C3.05517 17.2832 2.72135 16.946 2.81838 16.5778L3.09218 15.5387C3.1909 15.164 3.65983 15.0391 3.9318 15.3151L4.6971 16.0916C4.96837 16.3669 4.83816 16.8327 4.46348 16.9274L3.42437 17.1899ZM6.83309 15.8511C6.63782 16.0464 6.32124 16.0464 6.12598 15.8511L4.14888 13.874C3.95361 13.6788 3.95361 13.3622 4.14887 13.1669L14.3131 3.00268C14.5084 2.80741 14.825 2.80741 15.0202 3.00268L16.9973 4.97978C17.1926 5.17504 17.1926 5.49162 16.9973 5.68689L6.83309 15.8511Z" fill="#999999" stroke="#999999" stroke-width="0.5"/>
</svg>
